<!-- EDGE FIXTURE [D-text] — 50 <text> nodes — label-text rule at volume; perf
     Generated by tools/edge-fixtures/generate-fixtures.mjs. RENDER-survival probe
     (valid-but-weird / sanitized-hostile); the security battery owns sanitize. -->
<svg xmlns="http://www.w3.org/2000/svg" viewBox="0 0 470 320"><text x="10" y="20" font-size="11" fill="#1a1a1a">label-0</text><text x="100" y="20" font-size="11" fill="#1a1a1a">label-1</text><text x="190" y="20" font-size="11" fill="#1a1a1a">label-2</text><text x="280" y="20" font-size="11" fill="#1a1a1a">label-3</text><text x="370" y="20" font-size="11" fill="#1a1a1a">label-4</text><text x="10" y="50" font-size="11" fill="#1a1a1a">label-5</text><text x="100" y="50" font-size="11" fill="#1a1a1a">label-6</text><text x="190" y="50" font-size="11" fill="#1a1a1a">label-7</text><text x="280" y="50" font-size="11" fill="#1a1a1a">label-8</text><text x="370" y="50" font-size="11" fill="#1a1a1a">label-9</text><text x="10" y="80" font-size="11" fill="#1a1a1a">label-10</text><text x="100" y="80" font-size="11" fill="#1a1a1a">label-11</text><text x="190" y="80" font-size="11" fill="#1a1a1a">label-12</text><text x="280" y="80" font-size="11" fill="#1a1a1a">label-13</text><text x="370" y="80" font-size="11" fill="#1a1a1a">label-14</text><text x="10" y="110" font-size="11" fill="#1a1a1a">label-15</text><text x="100" y="110" font-size="11" fill="#1a1a1a">label-16</text><text x="190" y="110" font-size="11" fill="#1a1a1a">label-17</text><text x="280" y="110" font-size="11" fill="#1a1a1a">label-18</text><text x="370" y="110" font-size="11" fill="#1a1a1a">label-19</text><text x="10" y="140" font-size="11" fill="#1a1a1a">label-20</text><text x="100" y="140" font-size="11" fill="#1a1a1a">label-21</text><text x="190" y="140" font-size="11" fill="#1a1a1a">label-22</text><text x="280" y="140" font-size="11" fill="#1a1a1a">label-23</text><text x="370" y="140" font-size="11" fill="#1a1a1a">label-24</text><text x="10" y="170" font-size="11" fill="#1a1a1a">label-25</text><text x="100" y="170" font-size="11" fill="#1a1a1a">label-26</text><text x="190" y="170" font-size="11" fill="#1a1a1a">label-27</text><text x="280" y="170" font-size="11" fill="#1a1a1a">label-28</text><text x="370" y="170" font-size="11" fill="#1a1a1a">label-29</text><text x="10" y="200" font-size="11" fill="#1a1a1a">label-30</text><text x="100" y="200" font-size="11" fill="#1a1a1a">label-31</text><text x="190" y="200" font-size="11" fill="#1a1a1a">label-32</text><text x="280" y="200" font-size="11" fill="#1a1a1a">label-33</text><text x="370" y="200" font-size="11" fill="#1a1a1a">label-34</text><text x="10" y="230" font-size="11" fill="#1a1a1a">label-35</text><text x="100" y="230" font-size="11" fill="#1a1a1a">label-36</text><text x="190" y="230" font-size="11" fill="#1a1a1a">label-37</text><text x="280" y="230" font-size="11" fill="#1a1a1a">label-38</text><text x="370" y="230" font-size="11" fill="#1a1a1a">label-39</text><text x="10" y="260" font-size="11" fill="#1a1a1a">label-40</text><text x="100" y="260" font-size="11" fill="#1a1a1a">label-41</text><text x="190" y="260" font-size="11" fill="#1a1a1a">label-42</text><text x="280" y="260" font-size="11" fill="#1a1a1a">label-43</text><text x="370" y="260" font-size="11" fill="#1a1a1a">label-44</text><text x="10" y="290" font-size="11" fill="#1a1a1a">label-45</text><text x="100" y="290" font-size="11" fill="#1a1a1a">label-46</text><text x="190" y="290" font-size="11" fill="#1a1a1a">label-47</text><text x="280" y="290" font-size="11" fill="#1a1a1a">label-48</text><text x="370" y="290" font-size="11" fill="#1a1a1a">label-49</text></svg>
